<svg xmlns="http://www.w3.org/2000/svg" width="41" height="41" viewBox="0 0 41 41"><defs><style>.a{fill:#fff;stroke:#e0e6ee;stroke-miterlimit:10;}.b{fill:none;}.c,.d{stroke:none;}.d{fill:#bac3cf;}</style></defs><g transform="translate(0.5 0.5)"><rect class="a" width="40" height="40" rx="20"/><g class="b" transform="translate(10.848 12.05)"><path class="c" d="M13.288,0a5.032,5.032,0,0,1,2.541.66,4.793,4.793,0,0,1,1.815,1.815,5.032,5.032,0,0,1,.66,2.541,6.706,6.706,0,0,1-.968,3.344,17.791,17.791,0,0,1-2.728,3.366l-.4.4Q13.014,13.3,10.494,15.6l-1.342,1.21-1.32-1.166-1.223-1.12Q4.62,12.689,3.7,11.748A17,17,0,0,1,.99,8.382,6.63,6.63,0,0,1,0,5.016,4.968,4.968,0,0,1,.671,2.475,4.9,4.9,0,0,1,2.486.66,5.014,5.014,0,0,1,5.038,0,5.18,5.18,0,0,1,7.3.528,5.531,5.531,0,0,1,9.152,1.936,5.531,5.531,0,0,1,11,.528,5.227,5.227,0,0,1,13.288,0Z"/><path class="d" d="M 5.038000106811523 1.5 C 4.360840797424316 1.5 3.771270751953125 1.650230407714844 3.235580444335938 1.959280014038086 C 2.698940277099609 2.268879890441895 2.284311294555664 2.684050559997559 1.968009948730469 3.228509902954102 C 1.65308952331543 3.770580291748047 1.5 4.355270385742188 1.5 5.016000747680664 C 1.5 5.867770195007324 1.756799697875977 6.721230506896973 2.285060882568359 7.625150680541992 L 2.289960861206055 7.633540153503418 L 2.294750213623047 7.641990661621094 C 2.784390449523926 8.505280494689941 3.614770889282227 9.531980514526367 4.766350746154785 10.69712066650391 C 5.362080574035645 11.30388069152832 6.32395076751709 12.21961975097656 7.621650695800781 13.41559982299805 L 8.834964752197266 14.52654838562012 L 9.141756057739258 14.79754638671875 L 9.486997604370117 14.48626327514648 C 11.13986587524414 12.97918701171875 12.37234592437744 11.82719802856445 13.15043354034424 11.06205940246582 L 13.54378318786621 10.66889572143555 C 14.69238376617432 9.506521224975586 15.53099918365479 8.477640151977539 16.03672409057617 7.610386848449707 C 16.54585266113281 6.717718124389648 16.80400085449219 5.844867706298828 16.80400085449219 5.016000747680664 C 16.80400085449219 4.351409912109375 16.65275955200195 3.763680458068848 16.34164047241211 3.219210624694824 C 16.03409957885742 2.681020736694336 15.62298011779785 2.269900321960449 15.08479022979736 1.962360382080078 C 14.54032039642334 1.651240348815918 13.95259094238281 1.5 13.28800010681152 1.5 C 12.71829986572266 1.5 12.18221092224121 1.624390602111816 11.64908981323242 1.880290031433105 C 11.10228061676025 2.14275074005127 10.65932083129883 2.478750228881836 10.2949104309082 2.907470703125 L 9.152000427246094 4.252070426940918 L 8.009090423583984 2.907470703125 C 7.644680023193359 2.478750228881836 7.201720237731934 2.14275074005127 6.654910087585449 1.880290031433105 C 6.121790885925293 1.624390602111816 5.592900276184082 1.5 5.038000106811523 1.5 M 5.038000106811523 0 C 5.815340042114258 0 6.570660591125488 0.1760005950927734 7.304000854492188 0.5279998779296875 C 8.03734016418457 0.880000114440918 8.65333080291748 1.349329948425293 9.152000427246094 1.935999870300293 C 9.650670051574707 1.349329948425293 10.26666069030762 0.880000114440918 11 0.5279998779296875 C 11.7333402633667 0.1760005950927734 12.49600028991699 0 13.28800010681152 0 C 14.21199989318848 0 15.05900001525879 0.220001220703125 15.82900047302246 0.6599998474121094 C 16.59900093078613 1.100000381469727 17.20400047302246 1.704999923706055 17.64400100708008 2.475000381469727 C 18.08399963378906 3.244999885559082 18.30400085449219 4.09199047088623 18.30400085449219 5.016000747680664 C 18.30400085449219 6.116000175476074 17.9813404083252 7.230660438537598 17.33600044250488 8.360000610351562 C 16.76399993896484 9.342670440673828 15.85467052459717 10.46466064453125 14.60800075531006 11.72599983215332 L 14.20705986022949 12.12675094604492 C 13.41141033172607 12.90941047668457 12.17373085021973 14.06648063659668 10.49400043487549 15.59800052642822 L 9.152000427246094 16.8080005645752 L 7.832000732421875 15.64200019836426 L 6.60869026184082 14.52190017700195 C 5.282890319824219 13.30004024505615 4.312000274658203 12.37541007995605 3.696000099182129 11.7480001449585 C 2.44933032989502 10.48666000366211 1.547340393066406 9.364669799804688 0.9899997711181641 8.381999969482422 C 0.3299999237060547 7.252660751342773 0 6.130670547485352 0 5.016000747680664 C 0 4.09199047088623 0.2236595153808594 3.244999885559082 0.6709995269775391 2.475000381469727 C 1.118330001831055 1.704999923706055 1.723329544067383 1.100000381469727 2.486000061035156 0.6599998474121094 C 3.24867057800293 0.220001220703125 4.099330902099609 0 5.038000106811523 0 Z"/></g></g></svg>